# xmcd
#
# Track frame offsets: 
#        150
#        23887
#        48687
#        69675
#        94675
#        113285
#        131445
#        153727
#        182262
#        206022
#        227809
#        246767
#        269657
#
# Disc length: 3817 seconds
#
# Revision: 3
# Processed by: cddbd v1.5.2PL0 Copyright (c) Steve Scherf et al.
# Submitted via: ExactAudioCopyFreeDBPlugin 1.0
#
DISCID=b20ee70d
DTITLE=Jack Williams - Across The Winterline
DYEAR=1999
DGENRE=Folk
TTITLE0=You're The One
TTITLE1=Run, Run, Run
TTITLE2=The Old Buckdancer's Gone
TTITLE3=The Man In Me
TTITLE4=Waterbug
TTITLE5=Coyote
TTITLE6=Across The Winterline
TTITLE7=The Lone Palmetto Sings
TTITLE8=Mama Lou
TTITLE9=Playing On The Runway
TTITLE10=A Good Heart Shows
TTITLE11=If Night Be Kind
TTITLE12=Heartland
EXTD=
EXTT0=
EXTT1=
EXTT2=
EXTT3=
EXTT4=
EXTT5=
EXTT6=
EXTT7=
EXTT8=
EXTT9=
EXTT10=
EXTT11=
EXTT12=
PLAYORDER=
